
<svg width="263px" height="341px" viewBox="0 0 263 341" version="1.1" xmlns="http://www.w3.org/2000/svg" xmlns:xlink="http://www.w3.org/1999/xlink">
    <!-- Generator: Sketch 50.2 (55047) - http://www.bohemiancoding.com/sketch -->
    <desc>Created with Sketch.</desc>
    <defs>
        <polygon id="path-1" points="9.58222222e-05 0.176 117.02505 0.176 117.02505 115.918006 9.58222222e-05 115.918006"></polygon>
        <polygon id="path-3" points="0.0703926499 0.8162 48.8016084 0.8162 48.8016084 20 0.0703926499 20"></polygon>
    </defs>
    <g id="Page-1" stroke="none" stroke-width="1" fill="none" fill-rule="evenodd">
        <g id="Artboard" transform="translate(-352.000000, -1663.000000)">
            <g id="Group-11-Copy" transform="translate(352.000000, 1597.000000)">
                <g id="Group-6" transform="translate(0.000000, 66.000000)">
                    <path d="M261.708005,104 C262.007005,109 262.946005,113.896 262.371005,118.606 C261.938005,122.146 262.035005,126.012 259.987005,129.367 C259.108005,130.808 258.880005,132.704 258.587005,134.433 C257.948005,138.207 255.516005,141.013 253.600005,144.102 C253.395005,144.432 252.847005,144.684 252.841005,144.979 C252.780005,148.143 251.862005,151.726 253.043005,154.359 C254.336005,157.241 254.081005,159.889 254.200005,162.66 C254.245005,163.695 253.589005,164.75 253.317005,165.813 C253.075005,166.759 252.875005,167.722 252.738005,168.689 C252.291005,171.849 252.506005,175.274 251.325005,178.124 C248.873005,184.041 246.604005,190.131 242.253005,195.1 C240.012005,197.659 238.919005,197.943 235.992005,196.008 C235.615005,195.759 235.045005,195.752 234.560005,195.723 C230.998005,195.507 227.952005,193.969 225.015005,192.101 C223.974005,191.438 222.862005,190.878 221.750005,190.337 C215.065005,187.083 209.477005,182.554 205.170005,176.441 C202.699005,172.935 200.017005,169.58 197.507005,166.101 C196.825005,165.155 196.620005,163.83 195.858005,162.984 C193.336005,160.184 188.865005,159.998 186.804005,162.458 C185.415005,164.116 185.371005,169.088 186.472005,170.889 C188.270005,173.831 189.707005,177.002 191.602005,179.875 C193.372005,182.56 195.381005,185.131 197.574005,187.483 C200.076005,190.167 202.787005,192.686 205.611005,195.031 C208.244005,197.218 211.069005,199.201 213.954005,201.051 C215.998005,202.361 218.258005,203.347 220.465005,204.388 C221.708005,204.975 223.065005,205.316 224.320005,205.881 C226.143005,206.701 227.876005,207.733 229.733005,208.454 C230.694005,208.826 231.840005,208.721 233.655005,208.91 C232.949005,211.163 232.463005,213.263 231.623005,215.21 C231.018005,216.614 229.952005,217.823 229.071005,219.104 C228.154005,220.44 227.313005,221.847 226.258005,223.065 C224.883005,224.651 224.284005,226.649 222.577005,228.168 C219.478005,230.926 216.905005,234.276 213.089005,236.197 C211.759005,236.866 210.426005,237.529 209.376005,238.054 C207.438005,233.515 206.083005,229.439 204.030005,225.751 C201.072005,220.436 197.603005,215.189 192.613005,211.738 C190.126005,210.018 190.235005,208.466 190.225005,206.328 C190.205005,202.497 190.185005,198.666 190.174005,194.835 C190.168005,192.567 188.303005,189.174 186.547005,188.817 C184.169005,188.334 181.754005,188.494 180.246005,190.777 C179.523005,191.871 178.939005,193.206 178.783005,194.491 C178.545005,196.461 178.734005,198.483 178.736005,200.483 C178.739005,204.507 176.874005,205.509 173.295005,207.104 C170.372005,208.407 166.341005,207.202 164.362005,210.957 C163.357005,212.863 163.146005,217.216 164.649005,218.944 C166.738005,221.345 169.584005,221.642 172.323005,220.265 C173.548005,219.649 175.237005,220.026 176.683005,219.767 C182.549005,218.717 185.904005,222.567 189.270005,226.247 C191.466005,228.646 192.788005,231.665 194.475005,234.399 C198.659005,241.184 198.601005,248.45 198.090005,255.742 C197.882005,258.704 195.882005,261.564 194.582005,264.418 C193.670005,266.421 192.638005,268.379 191.520005,270.274 C190.388005,272.191 188.654005,272.705 186.387005,272.666 C177.807005,272.517 169.222005,272.548 160.641005,272.645 C158.546005,272.668 157.998005,271.985 158.000005,269.926 C158.044005,219.263 158.021005,168.601 158.011005,117.939 C158.010005,116.581 158.011005,115.224 158.011005,113.275 C160.152005,115.896 162.046005,117.743 163.380005,119.931 C167.352005,126.444 172.805005,131.671 178.266005,136.779 C182.388005,140.633 187.183005,143.88 192.039005,146.798 C195.444005,148.845 199.573005,149.645 203.174005,151.419 C210.555005,155.058 218.404005,154.074 226.152005,154.164 C228.639005,154.192 230.663005,151.919 230.716005,149.375 C230.772005,146.671 231.207005,143.824 228.100005,142.306 C227.333005,141.931 226.533005,141.402 225.729005,141.364 C223.318005,141.25 220.883005,141.176 218.485005,141.393 C214.209005,141.778 210.381005,140.433 206.551005,138.839 C204.903005,138.153 203.173005,137.618 201.434005,137.21 C199.394005,136.733 199.727005,135.74 200.754005,134.625 C202.112005,133.151 203.656005,131.844 204.969005,130.334 C207.095005,127.887 209.057005,125.298 211.185005,122.853 C211.620005,122.353 212.479005,121.973 213.147005,121.965 C218.311005,121.902 223.476005,121.897 228.639005,121.97 C232.088005,122.019 235.192005,121.068 238.213005,119.44 C240.117005,118.413 242.502005,118.168 244.237005,116.953 C249.938005,112.959 255.441005,108.682 261.708005,104" id="Fill-1" fill="#F85737"></path>
                    <g id="Group-5">
                        <mask id="mask-2" fill="white">
                            <use xlink:href="#path-1"></use>
                        </mask>
                        <g id="Clip-4"></g>
                        <path d="M69.8454,58.234 C69.8854,52.473 64.2504,46.644 58.5554,46.554 C52.4544,46.459 46.1164,52.522 46.6574,58.559 C46.9184,61.493 47.8174,64.863 50.5024,66.642 C52.7754,68.147 55.5494,69.464 58.2044,69.698 C63.6004,70.172 69.8084,63.694 69.8454,58.234 M106.9724,25.275 C107.8084,26.973 108.5534,28.439 109.2574,29.924 C111.3354,34.312 110.9054,35.668 106.7704,37.851 C105.2984,38.628 104.8204,40.785 105.5744,42.384 C105.9444,43.169 106.1284,44.154 106.0504,45.017 C105.7364,48.444 109.4054,51.906 112.8184,51.728 C116.1284,51.554 116.1574,51.802 116.3044,55.245 C116.3564,56.438 116.8944,57.604 117.0004,58.801 C117.0834,59.73 116.9494,60.716 116.7094,61.624 C116.4834,62.476 115.9914,63.258 115.6164,64.072 C112.3304,64.667 109.1514,65.478 106.9684,68.324 C106.8784,68.441 106.5554,68.452 106.5404,68.543 C106.2064,70.702 105.5194,72.898 105.6984,75.019 C105.8684,77.051 106.3584,79.419 109.2424,79.79 C109.6544,79.843 110.1554,80.645 110.2844,81.18 C110.9314,83.833 110.0044,86.017 108.5134,88.268 C107.3764,89.984 106.3764,91.369 104.1904,91.009 C102.4244,90.719 100.7144,90.097 98.9494,89.806 C98.1044,89.667 96.9264,89.633 96.3534,90.105 C94.5004,91.629 92.7794,93.337 91.1634,95.117 C90.0674,96.325 88.8614,97.492 90.5034,99.478 C91.4884,100.669 91.6064,102.599 92.0244,104.219 C92.1394,104.665 92.1164,105.443 91.8434,105.645 C89.6754,107.248 87.6054,109.163 85.1684,110.178 C81.9304,111.527 80.0364,108.786 78.1294,106.748 C76.7234,105.246 75.4584,103.594 73.3754,105.872 C73.1994,106.065 72.7404,105.992 72.4164,106.059 C70.1524,106.527 67.8894,106.999 66.1524,107.36 C65.3014,110.599 64.6434,113.105 63.9044,115.916 C60.5634,115.916 57.1934,115.912 53.8224,115.918 C52.0404,115.921 51.6584,114.857 51.6044,113.306 C51.4224,108.192 49.9474,106.65 44.9384,106.048 C44.4084,105.984 43.9154,105.635 43.3974,105.441 C42.8104,105.221 42.0204,104.678 41.6534,104.88 C39.9044,105.847 37.2084,105.942 36.6874,108.136 C35.8734,111.562 33.3174,110.734 31.6554,110.148 C29.0644,109.233 26.7584,107.472 24.4054,105.958 C24.0484,105.728 23.7984,104.756 23.9874,104.36 C24.6594,102.946 26.0774,101.681 26.2044,100.269 C26.3514,98.652 25.9374,96.342 24.8464,95.397 C22.8124,93.637 21.6574,90.362 18.2284,90.598 C16.6994,90.704 15.0944,90.897 13.7044,91.481 C12.0104,92.194 10.7384,92.331 9.6304,90.639 C8.3444,88.673 6.7034,86.877 5.7864,84.76 C5.3514,83.752 5.9334,81.986 6.5994,80.898 C7.4624,79.49 8.8234,78.364 10.0564,77.21 C11.6794,75.691 11.4044,74.194 10.4074,72.451 C9.9574,71.664 9.9034,70.59 9.8664,69.639 C9.7654,67.084 8.5844,65.757 6.0954,65.577 C1.9564,65.278 0.0174,63.213 0.0174,59.106 C0.0174,57.773 -0.0286,56.438 0.0294,55.107 C0.1194,53.011 1.2034,51.803 3.3494,51.688 C7.4994,51.465 9.4584,49.631 9.8734,45.62 C9.9414,44.977 10.1054,44.286 10.4284,43.737 C11.4844,41.944 11.6174,39.94 9.4114,37.883 C7.7704,36.354 4.8474,35.235 5.6114,32.341 C6.3224,29.643 7.8034,26.952 10.2564,25.539 C11.6264,24.75 14.3884,24.505 15.4354,25.355 C19.4324,28.604 20.4024,24.461 22.4244,22.941 C23.3714,22.229 24.1894,21.343 25.0554,20.526 C26.4164,19.241 27.1234,18.13 25.6764,16.158 C23.6174,13.351 26.0374,7.907 29.4304,6.927 C30.8644,6.513 32.2234,5.794 33.6744,5.511 C34.9244,5.267 35.7884,5.683 36.4724,7.192 C37.1994,8.796 38.7014,10.768 40.2024,11.115 C41.9524,11.519 44.0724,9.927 46.0254,9.942 C48.6404,9.963 49.9704,8.573 50.8624,6.607 C51.4114,5.393 51.2424,3.871 51.6794,2.582 C51.9714,1.718 52.7084,0.405 53.3314,0.355 C56.4434,0.106 59.5834,0.174 62.7124,0.221 C63.1844,0.228 63.9444,0.606 64.0674,0.979 C64.6664,2.796 65.3084,4.645 65.5304,6.53 C65.7904,8.75 67.0744,9.557 68.9924,9.822 C70.4564,10.025 72.0024,9.402 73.2834,11.018 C73.6464,11.477 75.8814,10.968 76.8584,10.31 C78.4134,9.259 79.5394,7.591 81.0344,6.424 C81.7654,5.854 83.1774,5.312 83.8344,5.642 C86.5044,6.986 89.0444,8.611 91.5234,10.294 C91.9584,10.589 92.1764,11.774 91.9614,12.349 C91.3644,13.946 90.3564,15.391 89.7764,16.992 C89.5044,17.739 89.5084,19.007 89.9674,19.526 C91.9724,21.794 94.0634,24.027 96.3994,25.936 C97.1914,26.583 99.2504,26.8 99.9474,26.24 C102.3134,24.338 104.7024,24.972 106.9724,25.275" id="Fill-3" fill="#000000" mask="url(#mask-2)"></path>
                    </g>
                    <path d="M91.515,238.049 C89.396,236.711 87.262,235.388 85.155,234.028 C79.181,230.17 75.045,224.64 71.453,218.676 C69.951,216.181 68.724,213.507 67.546,210.838 C67.286,210.25 67.525,208.876 67.945,208.658 C69.45,207.879 71.117,207.394 72.75,206.886 C74.461,206.356 76.464,206.321 77.886,205.383 C82.803,202.137 88.191,199.778 93.05,196.273 C97.382,193.148 100.576,189.093 104.545,185.76 C106.738,183.92 107.807,180.76 109.442,178.233 C110.503,176.592 111.675,175.023 112.788,173.415 C114.821,170.479 115.439,167.149 114.691,163.777 C114.434,162.618 112.932,161.436 111.716,160.851 C109.098,159.59 104.492,161.751 103.437,164.453 C102.549,166.725 101.843,168.981 99.737,170.68 C98.281,171.856 97.447,173.834 96.428,175.51 C94.268,179.063 91.102,181.631 87.97,184.22 C85.716,186.083 83.472,188 81.008,189.551 C78.874,190.895 76.446,191.776 74.133,192.828 C72.835,193.418 71.544,194.068 70.186,194.47 C67.148,195.372 64.078,196.172 61.003,196.936 C59.785,197.238 59.252,196.564 58.613,195.445 C57.174,192.929 55.119,190.759 53.738,188.219 C52.455,185.86 51.682,183.217 50.759,180.672 C49.806,178.045 48.806,175.421 48.096,172.724 C47.724,171.313 48.053,169.734 47.852,168.259 C47.463,165.399 46.786,162.571 46.52,159.703 C46.421,158.633 47.165,157.493 47.478,156.372 C47.652,155.749 47.819,155.1 47.83,154.461 C47.883,151.546 48.014,148.621 47.828,145.718 C47.759,144.635 46.923,143.594 46.409,142.548 C44.67,139.008 42.92,135.476 41,131.589 C44.529,131.869 48.062,130.68 51.524,132.402 C52.23,132.752 53.107,132.869 53.91,132.889 C56.325,132.951 58.948,133.521 61.115,132.785 C65.524,131.289 70.244,132.27 74.607,130.39 C77.919,128.963 81.629,128.482 85.097,127.374 C86.93,126.788 88.623,125.763 90.137,125.05 C93.341,128.107 96.602,131.219 99.866,134.328 C101.136,135.538 100.994,136.08 99.283,136.927 C96.4,138.354 93.16,138.618 90.361,139.823 C85.702,141.827 81.051,140.957 76.43,140.945 C73.309,140.937 71.535,142.591 70.085,144.62 C68.804,146.414 70.161,150.989 72.129,152.532 C72.998,153.213 74.225,153.747 75.311,153.789 C79.469,153.95 83.67,154.213 87.791,153.798 C90.958,153.48 94.185,152.916 97.157,151.353 C99.488,150.127 102.156,149.557 104.548,148.429 C107.43,147.071 110.385,145.715 112.939,143.852 C117.618,140.437 122.098,136.737 126.509,132.976 C128.202,131.534 129.456,129.585 130.948,127.899 C132.551,126.085 134.332,124.412 135.793,122.493 C137.98,119.617 139.954,116.58 142.445,113 C142.536,114.444 142.634,115.276 142.635,116.108 C142.643,166.516 142.646,216.924 142.642,267.331 C142.642,272.319 142.623,272.312 137.69,272.32 C130.025,272.331 122.35,272.134 114.7,272.471 C111.458,272.614 109.598,270.987 108.085,268.864 C106.788,267.046 106.145,264.753 105.274,262.645 C104.373,260.465 103.383,258.299 102.747,256.038 C102.33,254.559 102.606,252.899 102.342,251.359 C101.568,246.837 102.524,242.306 104.02,238.342 C105.86,233.469 108.584,228.729 112.686,225.085 C114.969,223.056 117.038,220.787 119.31,218.744 C119.785,218.318 121.278,218.132 121.364,218.302 C122.227,220.036 123.783,219.327 125.079,219.57 C127.056,219.94 128.987,220.679 130.972,220.848 C134.678,221.163 137.329,218.511 137.336,214.799 C137.344,210.607 135.372,209.073 131.368,207.911 C128.469,207.07 124.761,207.299 122.864,204.038 C122.493,203.4 121.947,202.731 121.912,202.054 C121.786,199.562 121.763,197.057 121.855,194.563 C121.913,192.945 121.689,191.652 120.394,190.436 C118.762,188.904 115.865,187.837 114.001,188.537 C112.654,189.043 110.55,192.548 110.363,194.176 C110.2,195.602 109.659,196.981 109.396,198.401 C109.25,199.191 108.988,200.288 109.373,200.792 C111.214,203.199 110.248,205.895 110.348,208.456 C110.374,209.148 109.799,210.143 109.198,210.536 C104.525,213.591 101.652,218.275 98.313,222.507 C96.988,224.187 96.155,226.296 95.302,228.297 C94.028,231.293 92.934,234.365 91.515,238.049" id="Fill-6" fill="#F85737"></path>
                    <path d="M187.637812,129.188 C183.666812,124.787 180.139812,120.938 176.698812,117.014 C175.956812,116.168 175.538812,115.042 174.949812,114.058 C174.660812,113.575 174.338812,113.109 174.002812,112.658 C171.628812,109.472 169.190812,106.333 166.885812,103.098 C164.875812,100.276 162.317812,97.578 161.281812,94.406 C160.222812,91.166 157.950812,88.536 158.000812,84.593 C158.311812,59.769 158.147812,34.94 158.193812,10.113 C158.195812,9.075 158.730812,8.038 159.017812,7 C160.121812,7.319 161.208812,7.753 162.335812,7.931 C164.026812,8.197 165.772812,8.148 167.447812,8.476 C170.495812,9.072 173.606812,9.441 176.414812,11.009 C177.663812,11.706 179.110812,12.115 180.516812,12.449 C184.599812,13.418 187.797812,15.947 191.131812,18.26 C193.309812,19.771 195.209812,20.853 196.026812,24.175 C197.267812,29.224 198.882812,34.18 198.237812,39.334 C197.797812,42.849 197.425812,46.889 194.196812,49.211 C192.587812,50.368 190.684812,52.705 188.106812,50.53 C187.872812,50.333 187.483812,50.241 187.163812,50.236 C183.058812,50.18 179.784812,47.878 176.283812,46.208 C174.398812,45.309 169.772812,45.882 168.418812,47.281 C168.199812,47.508 167.917812,47.723 167.806812,48 C166.044812,52.412 168.053812,56.881 172.455812,58.745 C175.069812,59.851 177.469812,61.574 180.158812,62.36 C183.511812,63.339 187.194812,64.528 190.499812,64.039 C196.521812,63.148 202.074812,60.538 205.581812,55.078 C206.723812,53.301 207.618812,51.317 208.327812,49.321 C209.413812,46.264 210.588812,43.166 211.056812,39.986 C211.376812,37.807 211.754812,35.542 210.423812,33.086 C209.376812,31.155 210.048812,28.27 210.097812,25.811 C210.101812,25.607 211.407812,25.082 211.728812,25.291 C213.499812,26.441 215.306812,27.615 216.810812,29.079 C219.063812,31.274 221.310812,33.551 223.116812,36.106 C224.566812,38.158 225.297812,40.706 226.468812,42.972 C226.908812,43.825 227.613812,44.583 228.323812,45.25 C232.131812,48.833 236.238812,52.143 239.717812,56.017 C241.846812,58.387 243.133812,61.552 244.614812,64.455 C246.029812,67.227 247.401812,70.054 248.407812,72.989 C248.955812,74.592 248.894812,76.28 250.074812,77.819 C251.422812,79.577 252.045812,81.87 253.213812,83.791 C254.925812,86.607 254.326812,89.127 252.668812,91.793 C250.486812,95.302 247.763812,98.237 244.696812,100.792 C242.236812,102.842 239.252812,104.298 236.398812,105.828 C234.367812,106.916 232.239812,108.156 230.027812,108.488 C226.934812,108.953 223.722812,108.686 220.567812,108.572 C220.249812,108.561 219.730812,107.457 219.713812,106.85 C219.626812,103.52 219.840812,100.175 219.611812,96.859 C219.419812,94.095 218.648812,91.374 218.375812,88.61 C218.295812,87.805 218.839812,86.704 219.454812,86.104 C222.487812,83.144 225.198812,80.087 226.865812,76.023 C228.678812,71.603 228.575812,69.785 224.974812,67.187 C223.048812,65.797 217.950812,67.166 216.418812,69.279 C214.776812,71.546 212.917812,73.659 211.116812,75.808 C210.830812,76.148 210.257812,76.625 209.980812,76.534 C208.011812,75.896 205.819812,75.495 204.202812,74.322 C200.878812,71.909 196.628812,70.996 193.279812,75.398 C191.516812,77.715 193.305812,82.862 196.018812,83.875 C197.310812,84.356 198.301812,86.062 199.536812,86.192 C202.720812,86.529 204.126812,88.933 206.023812,90.828 C206.196812,91 206.524812,91.128 206.555812,91.314 C207.084812,94.464 208.984812,97.446 208.134812,100.745 C207.419812,103.523 206.495812,106.289 205.298812,108.892 C203.597812,112.591 201.525812,116.117 198.521812,118.967 C195.210812,122.107 191.870812,125.216 187.637812,129.188" id="Fill-8" fill="#F85737"></path>
                    <path d="M142.404485,7.00203787 L142.404485,11.1150379 C142.401485,36.3550379 142.429485,61.5940379 142.324485,86.8340379 C142.317485,88.5230379 141.499485,90.3160379 140.694485,91.8730379 C139.044485,95.0670379 137.276485,98.2180379 135.317485,101.231038 C132.999485,104.796038 130.652485,108.387038 127.917485,111.627038 C123.051485,117.389038 117.883485,122.897038 112.619485,128.759038 C109.269485,125.773038 106.212485,123.023038 103.124485,120.306038 C101.899485,119.229038 101.380485,118.713038 103.107485,117.174038 C107.675485,113.104038 112.229485,108.892038 116.044485,104.139038 C119.404485,99.9510379 121.900485,95.0330379 124.505485,90.2870379 C126.078485,87.4200379 127.151485,84.2750379 128.398485,81.2340379 C128.611485,80.7160379 128.499485,80.0720379 128.659485,79.5220379 C129.494485,76.6620379 129.532485,73.4460379 130.507485,70.8890379 C131.589485,68.0490379 131.104485,65.4540379 131.451485,62.7810379 C131.716485,60.7340379 131.674485,58.7830379 132.412485,56.6670379 C133.317485,54.0750379 132.636485,50.9240379 132.589485,48.0160379 C132.585485,47.7800379 132.163485,47.5590379 131.951485,47.3170379 C130.583485,45.7550379 130.265485,43.9400379 130.018485,41.8810379 C129.731485,39.4810379 128.535485,37.1890379 127.720485,34.8550379 C127.592485,34.4870379 127.343485,34.1580379 127.245485,33.7860379 C126.155485,29.6520379 124.996485,25.5790379 122.067485,22.2350379 C121.222485,21.2710379 120.905485,19.8590379 120.252485,18.7060379 C119.592485,17.5430379 118.769485,16.4730379 118.115485,15.3070379 C117.820485,14.7820379 117.562485,14.0860379 117.670485,13.5440379 C117.731485,13.2280379 118.538485,13.0260379 119.033485,12.8360379 C121.087485,12.0470379 123.151485,11.2840379 125.208485,10.5020379 C125.357485,10.4450379 125.462485,10.2470379 125.609485,10.2150379 C128.155485,9.66103787 130.685485,8.97803787 133.260485,8.62803787 C135.110485,8.37803787 136.977485,8.85903787 138.666485,7.36703787 C139.350485,6.76303787 140.879485,7.11403787 142.404485,7.00203787" id="Fill-10" fill="#F85737"></path>
                    <path d="M184.258,293.018 L117.009,293.018 C113.154,293.018 110,289.864 110,286.009 C110,282.154 113.154,279 117.009,279 L184.258,279 C188.113,279 191.267,282.154 191.267,286.009 C191.267,289.864 188.113,293.018 184.258,293.018" id="Fill-12" fill="#000000"></path>
                    <path d="M177.936,315.018 L124.009,315.018 C120.155,315.018 117,311.864 117,308.009 C117,304.154 120.155,301 124.009,301 L177.936,301 C181.79,301 184.945,304.154 184.945,308.009 C184.945,311.864 181.79,315.018 177.936,315.018" id="Fill-14" fill="#000000"></path>
                    <g id="Group-18" transform="translate(127.000000, 321.000000)">
                        <mask id="mask-4" fill="white">
                            <use xlink:href="#path-3"></use>
                        </mask>
                        <g id="Clip-17"></g>
                        <path d="M36.0807,20.0002 L14.2347,20.0002 C9.9287,20.0002 5.7747,18.6252 3.4007,13.6252 L0.7937,7.8252 C-1.0673,4.2922 0.7697,0.8162 5.0767,0.8162 L43.9007,0.8162 C48.2087,0.8162 50.0467,3.6252 47.9057,7.8252 L44.5537,15.2922 C42.9707,18.9592 40.3877,20.0002 36.0807,20.0002" id="Fill-16" fill="#000000" mask="url(#mask-4)"></path>
                    </g>
                </g>
            </g>
        </g>
    </g>
</svg>