
<svg width="449px" height="240px" viewBox="0 0 449 240" version="1.1" xmlns="http://www.w3.org/2000/svg" xmlns:xlink="http://www.w3.org/1999/xlink">
    <!-- Generator: Sketch 50.2 (55047) - http://www.bohemiancoding.com/sketch -->
    <desc>Created with Sketch.</desc>
    <defs></defs>
    <g id="Page-1" stroke="none" stroke-width="1" fill="none" fill-rule="evenodd">
        <g id="Artboard" transform="translate(-879.000000, -2309.000000)">
            <g id="Group-11-Copy-2" transform="translate(230.000000, 2176.000000)">
                <g id="Group-7" transform="translate(649.000000, 133.000000)">
                    <path d="M420.529678,2 L366.553802,2 C366.453578,2.23890406 366.353585,2.43864055 366.220191,2.6682278 C365.274832,4.29410469 364.495337,5.63506547 362.829576,8.50092058 C362.738318,8.6579259 362.738318,8.6579259 362.647059,8.81493173 C352.28241,26.6467656 347.546142,34.7684774 341.670797,44.746398 C340.819038,46.1927024 340.784479,46.8322899 341.53205,48.0956284 C348.730888,60.2637681 355.057778,71.1427736 366.762733,91.4029345 C367.091613,91.9725892 367.13903,92.0015516 367.709996,91.9999854 C384.628386,91.9540603 401.754994,91.9524493 419.124599,91.9939973 C419.726597,91.9954593 419.775223,91.967089 420.088971,91.4234528 C428.93221,76.1007915 437.390953,61.5487114 445.637512,47.4800022 C446.120111,46.6561612 446.120434,46.3646935 445.640837,45.5521009 L445.640644,45.5517734 C440.162608,36.266176 434.508327,26.5581881 427.698732,14.7712099 C426.188332,12.15656 425.004729,10.0474629 422.377211,5.31941085 C422.363294,5.29436814 422.363294,5.29436814 422.349378,5.26932597 C421.513548,3.7653049 420.997169,2.83713641 420.529678,2 Z" id="Path" stroke="#000000" stroke-width="4"></path>
                    <path d="M336.529678,52 L282.553802,52 C282.453578,52.2389041 282.353585,52.4386405 282.220191,52.6682278 C281.274832,54.2941047 280.495337,55.6350655 278.829576,58.5009206 C278.738318,58.6579259 278.738318,58.6579259 278.647059,58.8149317 C268.28241,76.6467656 263.546142,84.7684774 257.670797,94.746398 C256.819038,96.1927024 256.784479,96.8322899 257.53205,98.0956284 C264.730888,110.263768 271.057778,121.142774 282.762733,141.402934 C283.091613,141.972589 283.13903,142.001552 283.709996,141.999985 C300.628386,141.95406 317.754994,141.952449 335.124599,141.993997 C335.726597,141.995459 335.775223,141.967089 336.088971,141.423453 C344.93221,126.100792 353.390953,111.548711 361.637512,97.4800022 C362.120111,96.6561612 362.120434,96.3646935 361.640837,95.5521009 L361.640644,95.5517734 C356.162608,86.266176 350.508327,76.5581881 343.698732,64.7712099 C342.188332,62.15656 341.004729,60.0474629 338.377211,55.3194109 C338.363294,55.2943681 338.363294,55.2943681 338.349378,55.269326 C337.513548,53.7653049 336.997169,52.8371364 336.529678,52 Z" id="Path-Copy" stroke="#000000" stroke-width="4"></path>
                    <path d="M336.529678,148 L282.553802,148 C282.453578,148.238904 282.353585,148.438641 282.220191,148.668228 C281.274832,150.294105 280.495337,151.635065 278.829576,154.500921 C278.738318,154.657926 278.738318,154.657926 278.647059,154.814932 C268.28241,172.646766 263.546142,180.768477 257.670797,190.746398 C256.819038,192.192702 256.784479,192.83229 257.53205,194.095628 C264.730888,206.263768 271.057778,217.142774 282.762733,237.402934 C283.091613,237.972589 283.13903,238.001552 283.709996,237.999985 C300.628386,237.95406 317.754994,237.952449 335.124599,237.993997 C335.726597,237.995459 335.775223,237.967089 336.088971,237.423453 C344.93221,222.100792 353.390953,207.548711 361.637512,193.480002 C362.120111,192.656161 362.120434,192.364693 361.640837,191.552101 L361.640644,191.551773 C356.162608,182.266176 350.508327,172.558188 343.698732,160.77121 C342.188332,158.15656 341.004729,156.047463 338.377211,151.319411 C338.363294,151.294368 338.363294,151.294368 338.349378,151.269326 C337.513548,149.765305 336.997169,148.837136 336.529678,148 Z" id="Path-Copy-2" stroke="#000000" stroke-width="4"></path>
                    <path d="M252.529678,100 L198.553802,100 C198.453578,100.238904 198.353585,100.438641 198.220191,100.668228 C197.274832,102.294105 196.495337,103.635065 194.829576,106.500921 C194.738318,106.657926 194.738318,106.657926 194.647059,106.814932 C184.28241,124.646766 179.546142,132.768477 173.670797,142.746398 C172.819038,144.192702 172.784479,144.83229 173.53205,146.095628 C180.730888,158.263768 187.057778,169.142774 198.762733,189.402934 C199.091613,189.972589 199.13903,190.001552 199.709996,189.999985 C216.628386,189.95406 233.754994,189.952449 251.124599,189.993997 C251.726597,189.995459 251.775223,189.967089 252.088971,189.423453 C260.93221,174.100792 269.390953,159.548711 277.637512,145.480002 C278.120111,144.656161 278.120434,144.364693 277.640837,143.552101 L277.640644,143.551773 C272.162608,134.266176 266.508327,124.558188 259.698732,112.77121 C258.188332,110.15656 257.004729,108.047463 254.377211,103.319411 C254.363294,103.294368 254.363294,103.294368 254.349378,103.269326 C253.513548,101.765305 252.997169,100.837136 252.529678,100 Z" id="Path-Copy-3" stroke="#000000" stroke-width="4"></path>
                    <path d="M421.529678,100 L367.553802,100 C367.453578,100.238904 367.353585,100.438641 367.220191,100.668228 C366.274832,102.294105 365.495337,103.635065 363.829576,106.500921 C363.738318,106.657926 363.738318,106.657926 363.647059,106.814932 C353.28241,124.646766 348.546142,132.768477 342.670797,142.746398 C341.819038,144.192702 341.784479,144.83229 342.53205,146.095628 C349.730888,158.263768 356.057778,169.142774 367.762733,189.402934 C368.091613,189.972589 368.13903,190.001552 368.709996,189.999985 C385.628386,189.95406 402.754994,189.952449 420.124599,189.993997 C420.726597,189.995459 420.775223,189.967089 421.088971,189.423453 C429.93221,174.100792 438.390953,159.548711 446.637512,145.480002 C447.120111,144.656161 447.120434,144.364693 446.640837,143.552101 L446.640644,143.551773 C441.162608,134.266176 435.508327,124.558188 428.698732,112.77121 C427.188332,110.15656 426.004729,108.047463 423.377211,103.319411 C423.363294,103.294368 423.363294,103.294368 423.349378,103.269326 C422.513548,101.765305 421.997169,100.837136 421.529678,100 Z" id="Path-Copy-4" stroke="#000000" stroke-width="4"></path>
                    <path d="M421.529678,100 L367.553802,100 C367.453578,100.238904 367.353585,100.438641 367.220191,100.668228 C366.274832,102.294105 365.495337,103.635065 363.829576,106.500921 C363.738318,106.657926 363.738318,106.657926 363.647059,106.814932 C353.28241,124.646766 348.546142,132.768477 342.670797,142.746398 C341.819038,144.192702 341.784479,144.83229 342.53205,146.095628 C349.730888,158.263768 356.057778,169.142774 367.762733,189.402934 C368.091613,189.972589 368.13903,190.001552 368.709996,189.999985 C385.628386,189.95406 402.754994,189.952449 420.124599,189.993997 C420.726597,189.995459 420.775223,189.967089 421.088971,189.423453 C429.93221,174.100792 438.390953,159.548711 446.637512,145.480002 C447.120111,144.656161 447.120434,144.364693 446.640837,143.552101 L446.640644,143.551773 C441.162608,134.266176 435.508327,124.558188 428.698732,112.77121 C427.188332,110.15656 426.004729,108.047463 423.377211,103.319411 C423.363294,103.294368 423.363294,103.294368 423.349378,103.269326 C422.513548,101.765305 421.997169,100.837136 421.529678,100 Z" id="Path-Copy-5" stroke="#000000" stroke-width="4"></path>
                    <path d="M167.529678,148 L113.553802,148 C113.453578,148.238904 113.353585,148.438641 113.220191,148.668228 C112.274832,150.294105 111.495337,151.635065 109.829576,154.500921 C109.738318,154.657926 109.738318,154.657926 109.647059,154.814932 C99.2824103,172.646766 94.5461417,180.768477 88.6707972,190.746398 C87.819038,192.192702 87.7844793,192.83229 88.5320499,194.095628 C95.7308877,206.263768 102.057778,217.142774 113.762733,237.402934 C114.091613,237.972589 114.13903,238.001552 114.709996,237.999985 C131.628386,237.95406 148.754994,237.952449 166.124599,237.993997 C166.726597,237.995459 166.775223,237.967089 167.088971,237.423453 C175.93221,222.100792 184.390953,207.548711 192.637512,193.480002 C193.120111,192.656161 193.120434,192.364693 192.640837,191.552101 L192.640644,191.551773 C187.162608,182.266176 181.508327,172.558188 174.698732,160.77121 C173.188332,158.15656 172.004729,156.047463 169.377211,151.319411 C169.363294,151.294368 169.363294,151.294368 169.349378,151.269326 C168.513548,149.765305 167.997169,148.837136 167.529678,148 Z" id="Path-Copy-6" stroke="#000000" stroke-width="4"></path>
                    <path d="M81.5296778,99 L27.553802,99 C27.4535776,99.2389041 27.3535845,99.4386405 27.2201908,99.6682278 C26.2748315,101.294105 25.4953368,102.635065 23.8295762,105.500921 C23.7383178,105.657926 23.7383178,105.657926 23.6470591,105.814932 C13.2824103,123.646766 8.54614169,131.768477 2.67079721,141.746398 C1.81903797,143.192702 1.78447929,143.83229 2.53204988,145.095628 C9.73088769,157.263768 16.0577779,168.142774 27.7627333,188.402934 C28.0916128,188.972589 28.1390296,189.001552 28.7099965,188.999985 C45.6283858,188.95406 62.7549941,188.952449 80.1245993,188.993997 C80.7265973,188.995459 80.7752225,188.967089 81.0889708,188.423453 C89.9322105,173.100792 98.3909533,158.548711 106.637512,144.480002 C107.120111,143.656161 107.120434,143.364693 106.640837,142.552101 L106.640644,142.551773 C101.162608,133.266176 95.5083268,123.558188 88.6987316,111.77121 C87.1883318,109.15656 86.0047294,107.047463 83.3772113,102.319411 C83.3632943,102.294368 83.3632943,102.294368 83.3493776,102.269326 C82.5135482,100.765305 81.9971688,99.8371364 81.5296778,99 Z" id="Path-Copy-7" stroke="#000000" stroke-width="4"></path>
                    <path d="M334.233764,218.709229 C332.788889,217.050109 331.527461,215.167531 329.84216,213.802823 C328.461677,212.683688 327.853894,209.655253 324.669055,211.447987 C323.424304,210.014629 322.116088,208.508013 320.744407,206.92814 C319.811423,207.608191 319.107284,208.121914 318.514325,208.554087 C317.467844,207.578704 316.545978,206.720347 315.629208,205.866138 C312.833498,208.444432 312.813578,208.464243 310.478339,206.138895 C303.2989,198.990534 296.135676,191.826047 288.968283,184.665707 C288.656052,184.353787 288.363742,184.021595 287.98851,183.61983 C288.850617,182.720469 289.618221,181.919705 290.531286,180.966897 C289.597838,179.991513 288.717665,179.070957 287.300585,177.589222 C286.652036,178.79175 286.066025,179.878171 285.319731,181.262231 C283.843818,179.698483 282.703762,178.886201 282.178437,177.784114 C281.870376,177.136776 282.261359,175.777136 282.815405,175.16804 C286.350461,171.284473 290.018469,167.520699 293.81804,163.533466 C295.298585,165.297635 296.363595,166.567891 297.540711,167.97038 C297.032527,168.512209 296.260753,169.336009 295.535305,170.110511 C296.402508,171.210294 297.244695,172.279208 297.991916,173.226487 C298.577,172.92885 298.733578,172.889687 298.83364,172.792471 C301.045656,170.644046 301.027589,170.659712 303.060327,172.693873 C309.892328,179.532617 316.731278,186.364451 323.581809,193.185227 C325.869797,195.463119 325.889254,195.443768 323.562816,197.995339 C323.948239,199.612071 328.1513,200.629842 324.650525,202.830791 C325.333355,205.222486 329.024525,205.694743 328.284716,209.283437 C330.26696,211.240655 332.592008,213.54527 334.927712,215.839288 C335.835217,216.730356 336.2577,217.554618 334.233764,218.709229 Z M302.800814,187.255779 C301.86709,188.266376 300.914156,189.297597 299.73681,190.571727 C300.705204,191.428328 301.602386,192.221222 303.029912,193.482978 C303.821212,192.278512 304.574095,191.132711 305.259983,190.089116 C307.824564,191.679946 307.824564,191.679946 305.153164,194.752525 C305.88637,195.841036 306.59334,196.890131 307.094637,197.634902 C309.0675,197.199498 309.65266,194.065961 311.455456,195.888701 C313.236702,197.6899 310.01856,198.339799 309.662498,200.005335 C310.790652,201.093387 312.031714,202.290978 312.766794,203 C315.30186,200.769813 317.809284,198.563917 320,196.63668 C313.680842,190.40169 307.43805,184.242323 301.111395,178 C298.877577,180.118357 296.532255,182.342585 294,184.744184 C295.475314,185.968816 296.784777,187.05641 298.086276,188.137129 C300.742216,185.216254 300.909002,185.173172 302.800814,187.255779 Z" id="Combined-Shape" fill="#000000"></path>
                    <path d="M59.1210128,135.771277 C59.3776967,135.039806 59.4817577,134.495466 59.7435289,134.042387 C60.8697003,132.090414 60.8854251,129.443843 64.2750391,129.144248 C67.6355161,128.84742 69.4350779,126.204075 69.6570747,122.735232 C69.8379096,119.917662 67.9453867,117.340228 64.8619433,116.205457 C62.4472653,115.316813 59.2343237,116.204074 57.5485353,118.225184 C55.5112519,120.668031 55.4127408,123.949742 57.253927,126.72583 C57.56796,127.198728 58.0623655,127.894709 57.9157551,128.271276 C57.2243274,130.040727 56.5749867,131.920797 55.4219907,133.377287 C54.8443365,134.106915 53.2339345,134.081104 52.0707636,134.282984 C48.5997508,134.887243 46.2419595,137.005606 45.5505318,140.246296 C45.1305879,142.213479 44.2153134,142.674855 42.6650356,142.997034 C40.6573518,143.414622 38.9567636,143.651071 37.1585893,141.836451 C34.9173464,139.574744 31.9310266,139.808888 29.1509788,141.697716 C26.8491492,143.261138 25.8228764,146.259387 26.6535145,148.993071 C27.5484392,151.936931 30.0889154,153.94744 33.0248234,154.035014 C35.9352943,154.122588 38.6783426,152.156788 39.6949031,149.367794 C39.9626867,148.631714 40.3484062,147.690526 40.958435,147.36973 C43.4864239,146.039991 46.4445316,146.593089 48.2320685,148.514641 C50.9029678,151.386139 53.4217068,152.254502 56.629561,150.77174 C58.8717289,149.735604 60.1190736,150.344472 61.6536266,151.974266 C62.8588844,153.253764 63.4721506,154.038702 62.6845244,155.965785 C60.9695989,160.163333 62.4236781,164.645727 65.890991,167.463758 C70.057594,170.850558 75.6477515,170.541284 79.9063907,166.688961 C83.2243182,163.687486 83.7506357,157.56101 81.0311746,153.599911 C77.7280468,148.788424 72.4283351,147.784553 66.3571844,150.839955 C65.3618986,149.923657 64.4396868,148.883834 63.3324776,148.10581 C62.0869829,147.230073 61.869611,146.419785 62.1928939,144.850371 C62.9065212,141.386599 62.1868815,138.150057 59.1210128,135.771277" id="Fill-3" fill="#000000"></path>
                    <path d="M126.231342,160.511355 C123.105021,161.229575 120.317311,161.764445 117.590727,162.518216 C111.338889,164.246657 107.990581,168.334677 108.385895,174.719962 C108.673031,179.36642 109.878277,183.956955 110.679764,188.571856 C110.779497,189.14747 111.199745,190.04904 110.981779,190.235985 C109.63015,191.394004 110.551076,192.480521 111.045721,193.442808 C112.70942,196.678392 114.309176,199.971097 116.287759,203.014544 C118.267145,206.059188 120.865442,208.55578 124.693919,209.343905 C125.067919,209.421 125.485754,210.003005 125.606399,210.428425 C125.840049,211.2525 125.886699,212.130501 125.993269,212.98853 C127.085108,221.769745 135.076651,226.713797 143.235087,223.645185 C148.352055,221.720213 150.557853,217.508361 151.193251,212.59347 C151.845942,207.541964 151.636421,202.385402 152.143132,197.308332 C152.351848,195.217985 153.085371,192.988228 154.213807,191.220241 C156.335957,187.89478 160.468862,188.067345 162.361786,191.538207 C163.269039,193.201937 163.400542,195.296677 163.805106,197.212463 C164.031115,198.282602 163.63017,198.997227 162.549591,199.580031 C160.176096,200.860284 159.020716,203.054888 159.099136,205.678108 C159.194446,208.857369 161.863521,211.733843 164.714369,212.076176 C168.61845,212.544736 171.535653,210.766363 172.641568,207.243571 C173.625631,204.109849 172.216092,200.881455 168.965506,199.313595 C167.914686,198.806687 167.834658,198.184336 167.703155,197.208069 C167.431703,195.188026 167.183174,193.091288 166.432358,191.22144 C163.753228,184.546151 156.112361,183.141268 151.670202,188.514335 C150.438816,190.003901 149.264938,191.904907 149.003137,193.748391 C148.400715,197.993397 148.508894,202.333074 148.068539,206.607639 C147.752046,209.679447 147.356329,212.81996 146.394786,215.734383 C144.329339,221.995038 134.94555,221.94231 131.958373,217.976123 C130.274165,215.740374 129.683808,213.222611 129.607801,210.54906 C129.596541,210.142015 130.302718,209.611539 130.785701,209.311149 C132.845116,208.030098 135.263651,207.141311 136.966358,205.50834 C140.882102,201.752666 143.046076,196.840171 144.94463,191.846586 C145.058037,191.548194 144.921708,191.141549 144.855353,190.794423 C144.74637,190.224001 144.400922,189.62402 144.499851,189.101134 C145.289274,184.947603 146.355778,180.836813 146.962221,176.659315 C147.986098,169.604544 144.781759,164.776334 138.102435,162.591716 C136.78338,162.160305 135.371026,162.014504 134.004115,161.726497 C132.433313,161.396148 130.864925,161.054614 129.225355,160.702694 L129.225355,165.178585 C131.0286,164.887382 133.039757,166.196396 134.143661,163.842808 C134.883217,163.934683 135.612718,163.98781 136.326938,164.120429 C141.08921,165.004423 145.00817,168.83799 145.02506,173.132529 C145.046777,178.523171 144.174109,183.668948 142.504379,188.736431 C142.395396,189.066781 142.157724,189.379953 141.911608,189.636004 C141.398464,190.169675 140.677005,190.567932 140.326731,191.182693 C138.460751,194.458222 136.844104,197.883946 134.837774,201.069598 C131.410241,206.513368 123.709454,206.441866 120.201089,200.714882 C118.269156,197.561187 116.715647,194.179402 114.96991,190.911463 C114.70811,190.420932 114.367086,189.957964 113.99389,189.54373 C113.596162,189.102332 112.825641,188.797548 112.719071,188.322596 C111.838763,184.391162 110.777487,180.466519 110.344772,176.477963 C109.673985,170.290008 111.843187,166.616622 116.749026,164.800701 C118.164597,164.276616 119.698803,164.067302 121.144937,163.722173 C122.013985,165.389897 123.275935,165.659928 126.231342,164.881391 L126.231342,160.511355 Z" id="Fill-5" fill="#000000"></path>
                    <path d="M384.888682,180.634505 C378.800456,180.826625 372.41215,174.664048 372.2158,168.218129 C372.161156,166.431461 372.402425,164.536985 372.970171,162.845225 C377.948373,148.018368 383.000206,133.215468 388.108536,118.432379 C389.133814,115.465349 389.118996,112.653582 387.998321,109.744142 C387.743623,109.081628 387.761683,107.935359 388.173832,107.501822 C388.602189,107.053082 389.758984,106.907495 390.430462,107.129101 C399.681119,110.186432 408.911864,113.305038 418.115286,116.500124 C418.848355,116.754441 419.758787,117.643168 419.827324,118.313975 C419.890767,118.93272 419.069711,119.873048 418.398696,120.293223 C415.881809,121.869803 414.198019,123.949028 413.243594,126.796732 C408.342728,141.423176 403.262183,155.990188 398.429854,170.638747 C396.348271,176.948753 391.230216,180.354849 384.888682,180.634505 Z M399.6627,154.452163 C397.025033,153.527814 394.459089,152.593764 391.869237,151.734549 C390.569024,151.303093 389.216857,150.929843 389.780988,149.129186 C390.357992,147.286493 391.806249,147.606158 393.148301,148.045928 C395.729417,148.891747 398.287545,149.807781 400.92981,150.720582 C401.7298,148.289834 402.462204,146.063266 403.246102,143.681022 C400.245681,142.619014 397.448936,141.647546 394.665983,140.636351 C393.463699,140.199353 393.003016,139.352148 393.493584,138.091042 C393.962084,136.887678 394.802073,136.800833 395.901829,137.178241 C398.699494,138.139084 401.51509,139.046803 404.510454,140.037672 C405.330673,137.669287 406.118709,135.394676 406.968813,132.939908 C404.078735,131.96844 401.396011,131.136017 398.768919,130.152077 C397.562957,129.700296 396.561131,128.826299 397.189169,127.315281 C397.766173,125.924369 398.845239,126.0648 400.075568,126.515657 C402.710017,127.482043 405.387684,128.331557 407.848342,129.16167 C409.630388,125.594541 411.311746,122.228357 413,118.848777 C406.461693,116.652697 399.719711,114.388711 392.606239,112 C393.083015,117.085076 391.217751,121.181131 389.802137,125.37558 C385.353919,138.555295 380.890528,151.729929 376.397712,164.8944 C374.359117,170.867794 380.513981,178.444595 386.737809,176.761734 C392.775892,175.128763 394.429204,171.747335 395.56896,165.220533 C393.07336,164.365475 390.570403,163.478081 388.045838,162.655359 C386.636661,162.196649 385.635294,161.392405 386.17046,159.836579 C386.672522,158.376375 387.823312,158.375451 389.194329,158.885899 C391.80533,159.857828 394.482537,160.650062 397.227329,161.54808 C398.08341,159.053122 398.846619,156.830711 399.6627,154.452163 Z" id="Combined-Shape" fill="#000000"></path>
                    <path d="M309.612837,126.225304 C311.818206,123.761206 313.689387,121.052496 316.146905,119.056434 C320.96924,115.139399 326.082194,111.569706 331.140918,107.946114 C337.634661,103.294779 341.921181,97.6115544 341.344577,89.1030709 C340.582107,77.8504056 331.25494,71.378983 320.452429,74.7049846 C316.183522,76.0188014 312.937114,78.7077033 309.634621,82.0876028 C309.013521,81.3113822 308.559747,80.590902 307.960431,80.020138 C303.070888,75.3641963 297.316439,72.8498865 290.518171,74.1752198 C279.374054,76.3477162 277.111209,87.7312104 278.885517,95.3879242 C279.028277,96.0038334 280.237569,96.7671554 280.972229,96.7901886 C285.216569,96.9223995 289.469253,96.7666947 293.713594,96.887389 C295.740049,96.9449721 297.262672,96.6123719 298.179027,94.5730077 C298.833037,93.1168455 299.957507,92.4410499 301.539922,94.3228666 C302.195785,91.2115348 302.699618,88.5092736 303.375876,85.8507756 C303.524662,85.2666523 304.284351,84.8363912 304.762691,84.3351876 C305.104297,84.8442225 305.673021,85.3219321 305.749499,85.8673596 C306.130039,88.584362 306.378016,91.3188698 306.679759,94.0464676 C306.8939,95.9803395 307.119165,97.91329 307.338867,99.8462406 C308.39891,96.2198853 311.351454,98.2030484 313.443728,97.558578 C313.769574,96.0830678 314.05185,94.5145033 314.490329,92.989702 C314.631235,92.4995543 315.143875,91.837118 315.559641,91.7799955 C315.982824,91.7214911 316.551084,92.2554019 316.951091,92.6382145 C317.206484,92.8828277 317.333949,93.3103248 317.413208,93.6783962 C317.908698,95.9798788 319.33074,96.5925633 321.611198,96.4304092 C324.608239,96.217582 327.633091,96.3304449 330.642647,96.4230386 C331.145553,96.4387012 331.629455,97.0656663 332.122163,97.4102438 C331.644287,97.8653809 331.190976,98.6789154 330.683435,98.7139259 C328.531369,98.8622601 326.362616,98.7807223 324.200352,98.781183 C321.486515,98.7821043 318.77314,98.7816437 315.839136,98.7816437 C315.686642,99.4297994 315.483626,100.629832 315.096597,101.767675 C314.934833,102.24216 314.411996,102.866361 313.996693,102.911506 C313.541065,102.961258 312.913012,102.518098 312.551939,102.118241 C311.984142,101.489894 311.577646,100.71828 310.776704,99.5196291 C310.362329,100.817783 310.083297,101.506938 309.925241,102.222351 C309.413992,104.535811 309.026963,106.880135 308.414669,109.165495 C308.235291,109.83438 307.463088,110.34664 306.962963,110.930302 C306.590766,110.334663 305.981253,109.773573 305.888088,109.137394 C305.535359,106.714757 305.366642,104.266322 305.094563,101.830786 C304.871152,99.8314993 304.599073,97.8372803 304.348315,95.840758 L303.736485,95.8978804 C303.34204,97.7423833 303.008315,99.6039308 302.508653,101.419872 C302.387214,101.860729 301.709102,102.441167 301.299825,102.431032 C300.882668,102.421358 300.290305,101.835392 300.113245,101.373806 C299.766078,100.467217 299.653445,99.4717199 299.556572,99.0276388 L280.847082,99.0276388 L280.556463,99.7582536 C281.291122,100.776784 281.846868,102.014591 282.791497,102.77561 C286.905592,106.087791 291.083651,109.326727 295.331236,112.468002 C300.776525,116.494215 306.278825,120.434283 309.612837,126.225304" id="Fill-9" fill="#000000"></path>
                    <path d="M256.041984,129.641048 C256.322807,134.847235 254.208756,139.064049 250.655371,142.637862 C241.539742,151.80569 232.262848,160.817835 223.257972,170.091141 C216.524242,177.025969 205.772795,177.303712 199.199866,172.750198 C190.112505,166.454686 188.760291,153.363908 195.697919,146.121398 C205.433583,135.957287 215.351365,125.935042 225.669066,116.360502 C235.593336,107.15168 252.02195,111.568396 255.571165,125.333495 C255.927987,126.718066 255.894158,128.202587 256.041984,129.641048 Z M197.282747,161 C205.540762,152.683917 213.385667,144.783522 221.411336,136.700447 C226.280363,141.575457 230.97002,146.27105 235.770737,151.077555 C239.398111,147.450074 243.011545,143.849156 246.60732,140.230996 C247.260675,139.572979 247.899159,138.885604 248.447959,138.139976 C252.454056,132.699687 251.656182,124.864534 246.669588,120.428513 C241.564498,115.887638 233.83809,115.772998 228.947222,120.589755 C219.451272,129.942261 210.057553,139.405213 200.842276,149.035466 C197.939355,152.068774 196.308291,155.950234 197.282747,161 Z" id="Combined-Shape" fill="#000000"></path>
                    <polygon id="Fill-13" fill="#000000" points="421.090325 55.7071872 401.842382 55.7071872 401.842382 74.9162128 385.570242 74.9162128 385.570242 55.7914616 366.239342 55.7914616 366.239342 39.6227598 385.486821 39.6227598 385.486821 20.4146553 401.840992 20.4146553 401.840992 39.538946 421.090325 39.538946"></polygon>
                    <path d="M170.035956,211.999332 C167.612959,212.036751 166.019068,210.49817 166.000125,208.103353 C165.982503,205.875821 167.83191,203.96569 169.972958,204.000468 C171.994618,204.033044 173.915393,205.903555 173.996894,207.918018 C174.085003,210.112093 172.28758,211.964115 170.035956,211.999332" id="Fill-17" fill="#000000"></path>
                </g>
            </g>
        </g>
    </g>
</svg>